<?xml version="1.0" encoding="utf-8"?>
<!-- Generator: Adobe Illustrator 16.0.0, SVG Export Plug-In . SVG Version: 6.00 Build 0)  -->
<!DOCTYPE svg PUBLIC "-//W3C//DTD SVG 1.1//EN" "http://www.w3.org/Graphics/SVG/1.1/DTD/svg11.dtd">
<svg version="1.1" id="Layer_1" xmlns="http://www.w3.org/2000/svg" xmlns:xlink="http://www.w3.org/1999/xlink" x="0px" y="0px"
	 width="32px" height="32px" viewBox="0 0 32 32" enable-background="new 0 0 32 32" xml:space="preserve">
<g id="White_1_">
	<path fill="#58585A" d="M30.08,0.316H1.924c-0.964,0-1.747,0.779-1.747,1.74v28.053c0,0.959,0.783,1.738,1.747,1.738h15.158V19.637
		h-4.125v-4.758h4.125V11.37c0-4.074,2.498-6.291,6.145-6.291c1.748,0,3.248,0.129,3.686,0.188v4.256l-2.529,0.001
		c-1.982,0-2.367,0.939-2.367,2.316v3.04h4.729l-0.615,4.757h-4.113v12.211h8.064c0.965,0,1.746-0.779,1.746-1.74V2.056
		C31.826,1.095,31.045,0.316,30.08,0.316z"/>
</g>
</svg>
