<?xml version="1.0" encoding="utf-8"?>
<!-- Generator: Adobe Illustrator 16.0.0, SVG Export Plug-In . SVG Version: 6.00 Build 0)  -->
<!DOCTYPE svg PUBLIC "-//W3C//DTD SVG 1.1//EN" "http://www.w3.org/Graphics/SVG/1.1/DTD/svg11.dtd">
<svg version="1.1" id="Layer_1" xmlns="http://www.w3.org/2000/svg" xmlns:xlink="http://www.w3.org/1999/xlink" x="0px" y="0px"
	 width="100px" height="125px" viewBox="0 0 100 125" enable-background="new 0 0 100 125" xml:space="preserve">
<path fill="#72D0EB" d="M94.72,92.038c-2.915-10.836-6.627-21.43-11.267-31.743c-3.898,0.337-7.658,0.838-11.287,1.498
	c8.268,8.848,14.938,18.901,20.091,30.246h-3.499c-5.208-11.11-11.938-20.916-20.269-29.509c-5.258,1.145-10.229,2.642-14.932,4.473
	c1.169,0.564,2.319,1.148,3.454,1.755C67.98,74.61,77.44,82.45,85.779,92.038h-4.252c-7.642-8.366-16.209-15.262-26.003-20.491
	c-1.93-1.027-3.91-1.994-5.935-2.892c-1.904,0.845-3.762,1.745-5.576,2.701c-9.95,5.252-18.633,12.214-26.366,20.682h-4.252
	c8.439-9.699,18.016-17.613,29.14-23.485c1.014-0.534,2.039-1.053,3.078-1.555c-4.705-1.827-9.669-3.324-14.928-4.469
	c-8.33,8.593-15.061,18.399-20.27,29.509H6.919c5.15-11.345,11.821-21.397,20.092-30.246c-3.629-0.66-7.391-1.158-11.293-1.494
	c-4.636,10.313-8.35,20.904-11.263,31.74H1.176c4.126-15.596,9.89-30.707,17.639-45.229c7.1-13.308,15.859-26.115,26.544-38.337
	c1.715-1.96,2.828-3.164,4.23-4.695c1.584,1.56,2.636,2.867,4.564,5.083c10.53,12.104,19.18,24.778,26.205,37.949
	C88.105,61.331,93.872,76.442,98,92.038H94.72z M82.048,57.24c-1.41-3.006-2.906-5.987-4.479-8.943
	c-2.302-4.308-4.78-8.567-7.442-12.771c-6.318,2.876-12.196,6.031-17.649,9.468c5.917,4.045,11.313,8.449,16.208,13.237
	c0.284,0.276,0.562,0.556,0.847,0.837C73.542,58.26,77.71,57.646,82.048,57.24 M68.387,32.835
	C62.9,24.484,56.658,16.359,49.59,8.478c-7.074,7.881-13.315,16.006-18.803,24.357c6.748,3.094,13.009,6.505,18.803,10.242
	C55.374,39.34,61.64,35.929,68.387,32.835 M21.607,48.297c-1.574,2.956-3.068,5.938-4.48,8.943c4.335,0.41,8.505,1.022,12.516,1.832
	c0.333-0.336,0.669-0.667,1.01-0.996c4.85-4.729,10.197-9.086,16.05-13.085c-5.454-3.44-11.336-6.594-17.65-9.467
	C26.387,39.726,23.91,43.985,21.607,48.297 M49.594,46.865c-5.947,3.972-11.36,8.303-16.252,13.018
	c5.737,1.363,11.141,3.142,16.24,5.315c5.105-2.174,10.509-3.956,16.252-5.319C60.94,55.168,55.53,50.837,49.594,46.865"/>
<path fill-rule="evenodd" clip-rule="evenodd" fill="#72D0EB" d="M49.59,22.182c3.249,0,5.885,2.636,5.885,5.885
	c0,3.25-2.636,5.886-5.885,5.886c-3.254,0-5.886-2.636-5.886-5.886C43.704,24.818,46.336,22.182,49.59,22.182"/>
<path fill="#58595B" d="M5.737,111.462v9.522H4.033V97.348h6.097c2.774,0,4.864,0.608,6.273,1.821
	c1.409,1.213,2.112,2.944,2.112,5.193c0,1.036-0.191,1.988-0.576,2.856c-0.383,0.869-0.938,1.618-1.662,2.248
	c-0.723,0.629-1.604,1.119-2.639,1.469c-1.036,0.352-2.205,0.526-3.508,0.526H5.737z M5.737,110.092h4.393
	c1.047,0,1.983-0.144,2.808-0.435c0.824-0.288,1.521-0.69,2.095-1.201c0.574-0.513,1.014-1.117,1.32-1.813
	c0.305-0.695,0.458-1.455,0.458-2.28c0-1.814-0.559-3.212-1.678-4.192c-1.119-0.979-2.787-1.47-5.003-1.47H5.737V110.092z"/>
<polygon fill="#58595B" points="40.03,97.348 40.03,98.767 27.585,98.767 27.585,108.321 37.942,108.321 37.942,109.709 
	27.585,109.709 27.585,119.564 40.03,119.564 40.03,120.984 25.865,120.984 25.865,97.348 "/>
<path fill="#58595B" d="M59.558,100.222c-0.101,0.188-0.246,0.283-0.435,0.283c-0.147,0-0.333-0.104-0.562-0.309
	c-0.229-0.206-0.539-0.434-0.929-0.685c-0.392-0.251-0.882-0.483-1.468-0.694c-0.586-0.21-1.311-0.317-2.169-0.317
	c-0.86,0-1.618,0.122-2.271,0.367c-0.654,0.245-1.202,0.58-1.643,1.001c-0.44,0.424-0.776,0.914-1.005,1.473
	c-0.229,0.557-0.344,1.142-0.344,1.754c0,0.8,0.17,1.465,0.511,1.987c0.339,0.523,0.788,0.969,1.346,1.336
	c0.558,0.366,1.191,0.677,1.898,0.929c0.709,0.248,1.436,0.497,2.184,0.741c0.746,0.245,1.474,0.515,2.183,0.81
	c0.708,0.297,1.341,0.666,1.897,1.11c0.559,0.447,1.008,0.994,1.349,1.647c0.34,0.651,0.509,1.461,0.509,2.431
	c0,0.99-0.169,1.924-0.509,2.797c-0.341,0.875-0.833,1.636-1.479,2.279c-0.646,0.647-1.436,1.156-2.37,1.529
	c-0.938,0.373-2.005,0.561-3.207,0.561c-1.561,0-2.902-0.276-4.026-0.828c-1.125-0.55-2.11-1.307-2.957-2.263l0.468-0.735
	c0.133-0.168,0.289-0.25,0.467-0.25c0.1,0,0.228,0.065,0.384,0.201c0.157,0.134,0.345,0.296,0.569,0.491
	c0.224,0.194,0.491,0.407,0.802,0.634c0.312,0.229,0.675,0.441,1.087,0.635c0.413,0.196,0.889,0.36,1.422,0.494
	c0.535,0.134,1.145,0.199,1.823,0.199c0.938,0,1.774-0.143,2.51-0.426c0.736-0.285,1.356-0.67,1.866-1.16
	c0.507-0.489,0.895-1.071,1.161-1.747c0.268-0.672,0.402-1.392,0.402-2.162c0-0.836-0.171-1.521-0.511-2.062
	c-0.341-0.541-0.79-0.99-1.347-1.353c-0.558-0.36-1.189-0.666-1.899-0.912c-0.707-0.244-1.435-0.483-2.183-0.717
	c-0.747-0.234-1.475-0.496-2.182-0.785c-0.709-0.291-1.341-0.659-1.899-1.11c-0.558-0.451-1.006-1.012-1.346-1.687
	c-0.34-0.674-0.51-1.519-0.51-2.532c0-0.791,0.15-1.553,0.451-2.287c0.302-0.736,0.742-1.384,1.322-1.946
	c0.579-0.564,1.296-1.014,2.148-1.354c0.854-0.337,1.826-0.509,2.92-0.509c1.225,0,2.326,0.195,3.303,0.585
	c0.978,0.389,1.865,0.986,2.668,1.786L59.558,100.222z"/>
<path fill="#58595B" d="M85.246,117.009c0.111,0,0.208,0.038,0.285,0.116l0.667,0.72c-0.489,0.522-1.024,0.993-1.603,1.41
	c-0.58,0.418-1.211,0.773-1.896,1.07c-0.688,0.295-1.438,0.521-2.256,0.684c-0.819,0.161-1.718,0.243-2.698,0.243
	c-1.637,0-3.137-0.287-4.502-0.86c-1.363-0.575-2.533-1.388-3.507-2.44c-0.974-1.052-1.735-2.322-2.281-3.816
	c-0.546-1.491-0.817-3.15-0.817-4.976c0-1.795,0.282-3.432,0.843-4.912c0.562-1.481,1.353-2.754,2.373-3.817
	c1.019-1.063,2.238-1.887,3.657-2.472c1.421-0.586,2.987-0.878,4.703-0.878c0.858,0,1.644,0.065,2.354,0.191
	c0.713,0.128,1.379,0.313,1.997,0.553s1.2,0.536,1.748,0.895c0.544,0.356,1.078,0.767,1.601,1.233l-0.518,0.754
	c-0.088,0.132-0.227,0.199-0.418,0.199c-0.098,0-0.227-0.058-0.383-0.176c-0.156-0.115-0.354-0.261-0.595-0.434
	c-0.239-0.173-0.528-0.362-0.866-0.567c-0.341-0.206-0.743-0.396-1.212-0.569c-0.468-0.172-1.008-0.317-1.619-0.435
	c-0.614-0.116-1.31-0.174-2.089-0.174c-1.436,0-2.756,0.247-3.959,0.743c-1.202,0.495-2.238,1.202-3.106,2.122
	c-0.869,0.918-1.547,2.031-2.031,3.339c-0.483,1.31-0.725,2.775-0.725,4.404c0,1.669,0.239,3.161,0.717,4.474
	c0.479,1.314,1.143,2.426,1.987,3.333c0.848,0.908,1.847,1.603,3,2.088c1.151,0.485,2.401,0.728,3.749,0.728
	c0.846,0,1.601-0.056,2.265-0.167c0.663-0.11,1.271-0.278,1.829-0.502c0.557-0.222,1.074-0.495,1.554-0.818
	c0.477-0.322,0.952-0.7,1.419-1.135c0.056-0.045,0.108-0.081,0.158-0.109C85.122,117.022,85.18,117.009,85.246,117.009"/>
<rect x="94.702" y="97.347" fill="#58595B" width="1.721" height="23.638"/>
</svg>
