<?xml version="1.0" encoding="utf-8"?>
<!-- Generator: Adobe Illustrator 16.0.0, SVG Export Plug-In . SVG Version: 6.00 Build 0)  -->
<!DOCTYPE svg PUBLIC "-//W3C//DTD SVG 1.1//EN" "http://www.w3.org/Graphics/SVG/1.1/DTD/svg11.dtd">
<svg version="1.1" id="Layer_1" xmlns="http://www.w3.org/2000/svg" xmlns:xlink="http://www.w3.org/1999/xlink" x="0px" y="0px"
	 width="100px" height="100px" viewBox="0 0 100 100" enable-background="new 0 0 100 100" xml:space="preserve">
<g>
	<circle fill="#58585A" cx="32.961" cy="81.02" r="5.889"/>
	<circle fill="#58585A" cx="74.309" cy="81.02" r="5.889"/>
	<path fill="#58585A" d="M73.514,55.216c1.377,0,2.555-0.812,3.109-1.978l0.003,0.002L91.215,27.97l-0.018-0.01
		c0.214-0.449,0.344-0.946,0.344-1.477c0-1.907-1.545-3.452-3.452-3.452l0,0H73.514H44.929h-10.43v-6.488l0,0
		c0-1.907-1.545-3.452-3.452-3.452l0,0l0,0H12.186v0.028c-0.092-0.008-0.181-0.028-0.275-0.028c-1.763,0-3.202,1.327-3.41,3.035
		H8.459v3.452l0,0c0,1.907,1.545,3.452,3.452,3.452c0.094,0,0.183-0.021,0.275-0.028v0.028h12.373v43.733h0.001
		c0.005,1.901,1.548,3.441,3.451,3.441c0,0,0.001,0,0.002,0l0,0h59.254V70.12c1.633-0.103,2.947-1.329,3.185-2.922h0.049v-0.49
		c0-0.006,0.002-0.013,0.002-0.019s-0.002-0.012-0.002-0.018V63.67c0-0.006,0.002-0.012,0.002-0.018c0-1.834-1.433-3.316-3.235-3.43
		v-0.021h-52.77v-4.988h39.016V55.216z"/>
</g>
</svg>
